<svg width="500" height="140" viewBox="0 0 500 140" fill="none" xmlns="http://www.w3.org/2000/svg">
<path d="M0 70C0 31.3401 31.3401 0 70 0H430C468.66 0 500 31.3401 500 70V70C500 108.66 468.66 140 430 140H70C31.3401 140 0 108.66 0 70V70Z" fill="#EED875"/>
<path d="M5 70C5 34.1015 34.1015 5 70 5H430C465.899 5 495 34.1015 495 70V70C495 105.899 465.899 135 430 135H70C34.1015 135 5 105.899 5 70V70Z" fill="#703926"/>
<path d="M7 70C7 35.2061 35.2061 7 70 7H430C464.794 7 493 35.2061 493 70V70C493 104.794 464.794 133 430 133H70C35.2061 133 7 104.794 7 70V70Z" fill="#EED875"/>
<path d="M9 70C9 36.3106 36.3106 9 70 9H430C463.689 9 491 36.3106 491 70V70C491 103.689 463.689 131 430 131H70C36.3106 131 9 103.689 9 70V70Z" fill="#703926"/>
<path d="M11 70C11 37.4152 37.4152 11 70 11H430C462.585 11 489 37.4152 489 70V70C489 102.585 462.585 129 430 129H70C37.4152 129 11 102.585 11 70V70Z" fill="#EED875"/>
</svg>
